<svg width="26" height="26" viewBox="0 0 26 26" fill="none" xmlns="http://www.w3.org/2000/svg">
<path d="M13 25.5C6.09625 25.5 0.5 19.9038 0.5 13C0.5 6.09625 6.09625 0.5 13 0.5C19.9038 0.5 25.5 6.09625 25.5 13C25.5 19.9038 19.9038 25.5 13 25.5ZM13 23C15.6522 23 18.1957 21.9464 20.0711 20.0711C21.9464 18.1957 23 15.6522 23 13C23 10.3478 21.9464 7.8043 20.0711 5.92893C18.1957 4.05357 15.6522 3 13 3C10.3478 3 7.8043 4.05357 5.92893 5.92893C4.05357 7.8043 3 10.3478 3 13C3 15.6522 4.05357 18.1957 5.92893 20.0711C7.8043 21.9464 10.3478 23 13 23ZM6.75 13H9.25C9.25 13.9946 9.64509 14.9484 10.3483 15.6517C11.0516 16.3549 12.0054 16.75 13 16.75C13.9946 16.75 14.9484 16.3549 15.6517 15.6517C16.3549 14.9484 16.75 13.9946 16.75 13H19.25C19.25 14.6576 18.5915 16.2473 17.4194 17.4194C16.2473 18.5915 14.6576 19.25 13 19.25C11.3424 19.25 9.75269 18.5915 8.58058 17.4194C7.40848 16.2473 6.75 14.6576 6.75 13Z"/>
</svg>
