<svg width="28" height="28" viewBox="0 0 28 28" fill="none" xmlns="http://www.w3.org/2000/svg">
<path d="M19 15.25C19.6904 15.25 20.25 14.6904 20.25 14C20.25 13.3096 19.6904 12.75 19 12.75V15.25ZM2 14L1.11612 13.1161C0.627961 13.6043 0.627961 14.3957 1.11612 14.8839L2 14ZM6.88388 10.8839C7.37204 10.3957 7.37204 9.60427 6.88388 9.11612C6.39573 8.62796 5.60427 8.62796 5.11612 9.11612L6.88388 10.8839ZM5.11612 18.8839C5.60427 19.372 6.39573 19.372 6.88388 18.8839C7.37204 18.3957 7.37204 17.6043 6.88388 17.1161L5.11612 18.8839ZM3.25 8V3H0.75V8H3.25ZM3 3.25H25V0.75H3V3.25ZM24.75 3V25H27.25V3H24.75ZM25 24.75H3V27.25H25V24.75ZM3.25 25V20H0.75V25H3.25ZM3 24.75C3.13807 24.75 3.25 24.8619 3.25 25H0.75C0.75 26.2426 1.75736 27.25 3 27.25V24.75ZM24.75 25C24.75 24.8619 24.8619 24.75 25 24.75V27.25C26.2426 27.25 27.25 26.2426 27.25 25H24.75ZM25 3.25C24.8619 3.25 24.75 3.13807 24.75 3H27.25C27.25 1.75736 26.2426 0.75 25 0.75V3.25ZM3.25 3C3.25 3.13807 3.13807 3.25 3 3.25V0.75C1.75736 0.75 0.75 1.75736 0.75 3H3.25ZM19 12.75H2V15.25H19V12.75ZM2.88388 14.8839L6.88388 10.8839L5.11612 9.11612L1.11612 13.1161L2.88388 14.8839ZM1.11612 14.8839L5.11612 18.8839L6.88388 17.1161L2.88388 13.1161L1.11612 14.8839Z"/>
</svg>
