<svg width="24" height="26" viewBox="0 0 24 26" fill="none" xmlns="http://www.w3.org/2000/svg">
<path d="M22 25.5H2C1.66848 25.5 1.35054 25.3683 1.11612 25.1339C0.881696 24.8995 0.75 24.5815 0.75 24.25V1.75C0.75 1.41848 0.881696 1.10054 1.11612 0.866116C1.35054 0.631696 1.66848 0.5 2 0.5H22C22.3315 0.5 22.6495 0.631696 22.8839 0.866116C23.1183 1.10054 23.25 1.41848 23.25 1.75V24.25C23.25 24.5815 23.1183 24.8995 22.8839 25.1339C22.6495 25.3683 22.3315 25.5 22 25.5ZM20.75 23V3H3.25V23H20.75ZM8.25 5.5V8C8.25 8.99456 8.64509 9.94839 9.34835 10.6517C10.0516 11.3549 11.0054 11.75 12 11.75C12.9946 11.75 13.9484 11.3549 14.6517 10.6517C15.3549 9.94839 15.75 8.99456 15.75 8V5.5H18.25V8C18.25 9.6576 17.5915 11.2473 16.4194 12.4194C15.2473 13.5915 13.6576 14.25 12 14.25C10.3424 14.25 8.75268 13.5915 7.58058 12.4194C6.40848 11.2473 5.75 9.6576 5.75 8V5.5H8.25Z"/>
</svg>
