<svg width="28" height="24" viewBox="0 0 28 24" fill="none" xmlns="http://www.w3.org/2000/svg">
<path d="M15.25 18.1725V20.75H21.5V23.25H6.5V20.75H12.75V18.1725C10.3334 17.8678 8.11102 16.6916 6.5 14.8647C4.88898 13.0378 4.00004 10.6858 4 8.25V0.75H24V8.25C24 10.6858 23.111 13.0378 21.5 14.8647C19.889 16.6916 17.6666 17.8678 15.25 18.1725ZM6.5 3.25V8.25C6.5 10.2391 7.29018 12.1468 8.6967 13.5533C10.1032 14.9598 12.0109 15.75 14 15.75C15.9891 15.75 17.8968 14.9598 19.3033 13.5533C20.7098 12.1468 21.5 10.2391 21.5 8.25V3.25H6.5ZM0.25 3.25H2.75V8.25H0.25V3.25ZM25.25 3.25H27.75V8.25H25.25V3.25Z"/>
</svg>
