<svg width="28" height="28" viewBox="0 0 28 28" fill="none" xmlns="http://www.w3.org/2000/svg">
<path d="M9.85748 4.00001L13.1162 0.741258C13.3506 0.506919 13.6685 0.375275 14 0.375275C14.3314 0.375275 14.6493 0.506919 14.8837 0.741258L18.1425 4.00001H22.75C23.0815 4.00001 23.3994 4.1317 23.6339 4.36612C23.8683 4.60054 24 4.91849 24 5.25001V9.85751L27.2587 13.1163C27.4931 13.3507 27.6247 13.6686 27.6247 14C27.6247 14.3315 27.4931 14.6493 27.2587 14.8838L24 18.1425V22.75C24 23.0815 23.8683 23.3995 23.6339 23.6339C23.3994 23.8683 23.0815 24 22.75 24H18.1425L14.8837 27.2588C14.6493 27.4931 14.3314 27.6247 14 27.6247C13.6685 27.6247 13.3506 27.4931 13.1162 27.2588L9.85748 24H5.24998C4.91846 24 4.60051 23.8683 4.36609 23.6339C4.13167 23.3995 3.99998 23.0815 3.99998 22.75V18.1425L0.741227 14.8838C0.506888 14.6493 0.375244 14.3315 0.375244 14C0.375244 13.6686 0.506888 13.3507 0.741227 13.1163L3.99998 9.85751V5.25001C3.99998 4.91849 4.13167 4.60054 4.36609 4.36612C4.60051 4.1317 4.91846 4.00001 5.24998 4.00001H9.85748ZM6.49998 6.50001V10.8938L3.39373 14L6.49998 17.1063V21.5H10.8937L14 24.6063L17.1062 21.5H21.5V17.1063L24.6062 14L21.5 10.8938V6.50001H17.1062L14 3.39376L10.8937 6.50001H6.49998ZM14 19C12.6739 19 11.4021 18.4732 10.4644 17.5355C9.52676 16.5979 8.99998 15.3261 8.99998 14C8.99998 12.6739 9.52676 11.4022 10.4644 10.4645C11.4021 9.52679 12.6739 9.00001 14 9.00001C15.3261 9.00001 16.5978 9.52679 17.5355 10.4645C18.4732 11.4022 19 12.6739 19 14C19 15.3261 18.4732 16.5979 17.5355 17.5355C16.5978 18.4732 15.3261 19 14 19ZM14 16.5C14.663 16.5 15.2989 16.2366 15.7677 15.7678C16.2366 15.2989 16.5 14.663 16.5 14C16.5 13.337 16.2366 12.7011 15.7677 12.2322C15.2989 11.7634 14.663 11.5 14 11.5C13.3369 11.5 12.7011 11.7634 12.2322 12.2322C11.7634 12.7011 11.5 13.337 11.5 14C11.5 14.663 11.7634 15.2989 12.2322 15.7678C12.7011 16.2366 13.3369 16.5 14 16.5Z"/>
</svg>
