<svg width="136" height="35" viewBox="0 0 136 35" fill="none" xmlns="http://www.w3.org/2000/svg">
<path fill-rule="evenodd" clip-rule="evenodd" d="M102.23 8.57467C104.152 8.57467 105.71 7.02626 105.71 5.11618C105.71 3.2061 104.152 1.65769 102.23 1.65769C100.308 1.65769 98.7507 3.2061 98.7507 5.11618C98.7507 7.02626 100.308 8.57467 102.23 8.57467ZM134.432 0H131.12C130.687 0 130.271 0.289147 130.207 0.634686L129.007 9.66145C128.975 9.90024 129.147 10.0957 129.39 10.0957H131.821C132.247 10.0957 132.709 9.77112 132.851 9.37056L135.655 1.45935C136.068 0.625741 135.544 0 134.432 0ZM129.532 29.4798C129.527 29.481 129.374 29.5146 129.33 29.5244C129.252 29.5411 129.188 29.5549 129.127 29.5675C128.809 29.6327 128.555 29.67 128.289 29.6848C127.115 29.7495 126.242 28.6237 126.407 27.2944L126.469 26.693C126.778 24.455 127.005 22.7633 127.212 21.1093C127.481 18.9634 127.569 17.8674 127.516 16.6224C127.42 14.3409 126.265 12.7548 124.141 12.0864C123.016 11.7322 121.803 11.5243 120.619 11.4819C117.095 11.3563 113.529 12.0351 109.461 13.4635C108.581 13.7723 108.11 14.3549 108.018 15.2657C108 15.4487 107.976 15.6037 107.922 15.9309C107.886 16.1423 107.871 16.2362 107.855 16.3523C107.53 18.7046 107.267 20.6051 106.686 24.8115C106.565 25.6834 106.517 26.0361 106.452 26.5034C106.299 27.6129 106.053 28.7508 106.053 28.7508C105.806 30.0264 104.718 29.8394 104.331 29.8606C103.198 29.9222 102.563 29.3657 102.518 28.2558C102.498 27.7932 102.517 27.3127 102.569 26.7035C103.884 17.6372 104.52 13.1979 104.599 12.4335C104.656 11.892 104.499 11.7123 103.968 11.7049C102.035 11.6773 100.313 11.6806 98.6692 11.7205C97.9643 11.7376 97.6979 11.9906 97.5935 12.7305C97.5322 13.1645 97.3692 14.2863 97.0516 16.4616C96.9914 16.8732 96.9272 17.3135 96.8371 17.9303C96.7804 18.318 96.7804 18.318 96.7223 18.7158C96.6635 19.118 96.639 19.2864 96.6035 19.5284C96.4055 20.8851 96.2534 21.925 96.1049 22.9438C96.0981 22.9908 96.0981 22.9908 96.0912 23.0379C96.0005 23.6605 95.6698 26.1551 95.6698 26.1551C95.5286 27.2094 95.5164 28.219 95.6163 29.1489C95.4126 29.3324 92.5305 31.7905 90.1992 25.9922C90.1434 25.8533 90.0895 25.724 90.0372 25.604C89.9204 25.3048 89.7935 24.9795 89.6463 24.6026C89.568 24.4014 89.2819 23.6677 89.3019 23.7188C89.1636 23.3644 89.0598 23.0982 88.9583 22.8382C88.9123 22.7201 88.9534 22.5864 89.0578 22.514C89.156 22.4458 89.2545 22.3793 89.3869 22.291C89.4226 22.2673 89.5458 22.1852 89.5462 22.185C89.6089 22.1434 89.6561 22.1119 89.7016 22.0812C89.9565 21.9097 90.1359 21.7806 90.3028 21.6448C91.9009 20.3467 93.0027 18.5848 93.7687 16.2835C94.2432 14.8585 94.4579 13.6288 94.3923 12.4205C94.359 11.8068 94.1274 11.526 93.6705 11.5186C92.0255 11.492 90.3222 11.4982 88.5218 11.5348C88.0928 11.5435 87.8741 11.7574 87.7971 12.2412C87.7619 12.4613 87.7413 12.6892 87.7233 13.0109C87.7199 13.0739 87.7174 13.1229 87.7099 13.2685C87.6218 15.0075 87.114 16.5438 86.1536 17.8801C85.0882 19.3624 82.8172 20.209 81.1252 19.7466C80.9923 19.7104 80.9067 19.5823 80.9245 19.4466C81.0394 18.5737 81.1046 18.0782 81.3479 16.2296C81.7856 12.9031 82.005 11.2324 82.2595 9.28578C82.2995 8.97874 82.3367 8.69679 82.4148 8.10449C82.7064 5.89418 82.8315 4.91045 82.9704 3.68036C83.0482 2.99162 82.8717 2.81175 82.177 2.86075C80.3325 2.99103 78.7227 3.11879 77.1864 3.25957C76.2528 3.34513 76.0246 3.56797 75.8622 4.55616C75.7934 4.97404 75.7478 5.31141 75.6486 6.09524C75.6028 6.45944 75.5797 6.63873 75.5509 6.85009C74.8556 11.9661 74.3701 15.5344 73.8833 19.1073C73.7219 20.2926 73.5922 21.2425 73.3008 23.3743C73.2914 23.4419 73.2914 23.4419 73.2822 23.5096C72.9172 26.1802 72.7407 27.4743 72.5315 29.0126C72.5074 29.1899 72.4972 29.2642 72.4833 29.3672C72.4674 29.4841 72.3783 29.5778 72.2617 29.6C71.8444 29.6795 71.5304 29.7244 71.2173 29.7414C70.074 29.8026 69.4322 29.2482 69.3859 28.1401C69.3663 27.6693 69.3844 27.2053 69.4392 26.5057C69.7431 24.3473 69.9676 22.6988 70.1729 21.0914C70.4501 18.9218 70.5401 17.8463 70.4903 16.6035C70.3976 14.2987 69.2128 12.6994 67.0274 12.0334C65.8623 11.6783 64.592 11.4737 63.3338 11.4337C59.8037 11.3215 56.2332 11.9952 52.1124 13.4062C51.2028 13.7177 50.7197 14.3065 50.6092 15.2459C50.5318 15.9037 50.4574 16.431 50.282 17.6086C50.2017 18.1475 50.1664 18.3868 50.1237 18.6859C49.4529 23.3943 49.0636 26.1281 48.6438 29.0833C48.6264 29.2053 48.6083 29.3324 48.5882 29.4738C48.5717 29.5893 48.4837 29.6817 48.3686 29.7044C47.9125 29.7944 47.5902 29.8427 47.2618 29.8606C46.1293 29.9222 45.4941 29.3657 45.4485 28.2558C45.4354 27.9382 45.4401 27.6061 45.46 27.2269C45.4736 26.9704 45.5437 26.0758 45.5506 25.9867C45.5506 25.9867 45.6078 25.4341 45.6383 25.1632C45.8566 23.2247 46.0766 21.6818 46.6083 18.1984C46.8949 16.3212 47.022 15.4705 47.17 14.4183C47.295 13.5291 46.9878 13.0517 45.9847 12.7095C45.0529 12.3913 44.6194 12.2517 44.0871 12.1096C41.0926 11.3108 38.142 11.2305 35.2413 11.898C31.393 12.7835 28.673 14.9962 27.1151 18.5255C26.7505 19.3515 26.4617 20.1923 26.2423 21.0463C25.126 17.5081 22.2144 15.607 22.2144 15.607C22.2144 15.607 25.3339 13.4779 25.6385 8.68123C25.9429 3.88434 20.5955 0.00213895 13.9238 0.00213895C5.70489 0.00213895 0.740884 3.44838 0.235628 3.72217C0.143158 3.77214 -0.0355138 3.87695 0.00621536 4.02629L1.30942 8.13133C1.38387 8.40783 1.40209 8.62873 1.74846 8.47336C1.74846 8.47336 4.98903 7.16394 5.70489 7.16394C5.70489 7.16394 1.97415 32.8823 2.06466 32.8823C1.97415 33.6467 2.06466 33.8616 3.09261 34.1641C3.50226 34.2849 21.8206 38.2808 25.9306 27.6668C25.9488 27.7906 25.9674 27.9145 25.9884 28.0389C26.2921 29.8557 26.9962 31.3193 28.1848 32.4312C30.0449 34.1713 32.3583 34.6678 35.2954 34.1696C36.3278 33.9946 37.3011 33.5275 38.2922 32.7721C38.4172 32.677 38.5967 32.7046 38.6866 32.8331C39.4377 33.9051 40.5726 34.506 42.7898 34.5017C44.9932 34.4887 46.4823 33.9963 47.8635 33.5298C47.9979 33.4843 48.1452 33.5479 48.2038 33.6766C48.3013 33.8911 47.9816 34.3424 48.7484 34.3424C50.6503 34.3424 52.3371 34.3749 53.9487 34.3409C54.6691 34.3257 54.9296 34.0836 55.0462 33.3377C55.18 32.4827 55.2952 31.6917 55.4882 30.3222C55.4997 30.2397 55.5091 30.1728 55.5393 29.9595C55.6567 29.1251 55.7507 28.4566 55.9754 26.8569C56.6203 22.2642 56.9205 20.1406 57.2935 17.5485C57.3295 17.2965 57.5556 17.0113 57.7939 16.915C58.8857 16.4729 60.037 16.2772 61.2182 16.3323C62.4027 16.3875 63.1328 16.9893 63.3544 18.093C63.4326 18.4817 63.4543 18.865 63.4083 19.2142C63.1232 21.374 62.8417 23.4556 62.462 26.3015C62.462 26.3015 61.2505 33.5129 67.0477 34.3712C69.9558 34.3837 76.4707 34.4605 78.0776 34.4222C78.6555 34.4086 78.9147 34.1474 79.0121 33.4869C79.1229 32.7361 79.2082 32.1111 79.389 30.7424C79.4454 30.3163 79.4705 30.126 79.5022 29.8888C79.5898 29.2342 79.6799 28.5564 79.7934 27.7014C79.8245 27.4657 80.0533 25.7382 80.1209 25.2293C80.1391 25.093 80.2561 24.9909 80.3946 24.9909H82.5357C82.6492 24.9909 82.751 25.06 82.7926 25.1648C82.799 25.1815 82.8641 25.3417 82.8852 25.396C82.8944 25.4193 82.9031 25.4417 82.9113 25.4635C83.4242 26.4546 84.9229 29.3538 85.3104 30.1394C85.6942 30.9178 89.0382 35.8319 93.4586 34.4142C94.158 34.275 95.5762 33.817 96.5575 32.3318C97.2694 33.6134 98.3205 34.4175 99.5843 34.4856V34.5497H109.706V34.4826C110.238 34.463 111.424 34.4086 111.608 34.3737C111.963 34.3065 112.176 34.0784 112.262 33.7538C112.341 33.4569 112.399 33.1806 112.436 32.9158C112.606 31.6892 112.753 30.6282 113.041 28.5447C113.053 28.4541 113.053 28.4541 113.066 28.3633C113.809 22.9918 114.141 20.6016 114.56 17.6168C114.596 17.3613 114.802 17.0665 115.035 16.9699C116.117 16.5207 117.263 16.3235 118.449 16.3787C119.408 16.4235 120.115 16.8629 120.397 17.7061C120.565 18.2077 120.632 18.7538 120.572 19.2339C120.316 21.2812 120.095 22.9556 119.637 26.3256C119.629 26.3861 119.621 26.4472 119.613 26.5086C119.464 27.7298 118.989 33.952 124.703 34.4259C125.83 34.4342 126.312 34.4136 126.856 34.3216C127.603 34.1954 128.15 33.9364 128.585 33.4773C129.473 32.5405 130.133 31.2478 130.133 30.0264C130.133 29.4798 129.663 29.451 129.532 29.4798ZM13.089 6.10049C13.099 6.02893 13.1521 5.9704 13.2236 5.95212C13.2477 5.9459 13.2918 5.93559 13.3541 5.92256C13.4561 5.90137 13.5729 5.87998 13.702 5.86015C14.5497 5.72987 15.4503 5.72423 16.2998 5.92704C16.9175 6.07443 19.6166 6.7062 18.755 10.1365C17.8931 13.567 13.5118 13.6714 12.8574 13.6354C12.6915 13.6263 12.5395 13.6166 12.4045 13.6068C12.3571 13.6033 12.3151 13.6002 12.2793 13.5973C12.2575 13.5956 12.2425 13.5944 12.2346 13.5936C12.131 13.5847 12.056 13.4927 12.0701 13.3918L13.089 6.10049ZM20.2108 24.6063C19.0621 29.7802 12.0573 29.2014 11.1371 29.1508C10.904 29.138 10.6903 29.1242 10.5004 29.1106C10.434 29.1057 10.375 29.1012 10.3245 29.0971C10.2939 29.0946 10.2728 29.0929 10.2618 29.0919C10.116 29.0795 10.0108 28.9501 10.0306 28.8082L11.4627 18.5589C11.4768 18.4584 11.5515 18.3759 11.652 18.3503C11.6859 18.3417 11.748 18.3271 11.8352 18.309C11.979 18.2789 12.1429 18.249 12.3245 18.2212C13.5163 18.038 14.7823 18.0302 15.9761 18.3151C16.8446 18.5224 21.3594 19.4324 20.2108 24.6063ZM39.8407 18.3487C39.7044 19.2039 38.8092 26.2271 38.5175 28.1156C38.43 28.6822 37.9088 29.1288 37.3652 29.2908C36.2585 29.6206 35.465 29.6661 34.6518 29.325C33.7816 28.9601 33.2399 28.2433 33.0289 27.2952C32.3261 24.1367 32.7887 21.2126 34.4772 18.5922C35.3565 17.2281 36.8374 16.4892 38.3784 16.5942C39.3829 16.6628 39.5803 16.6978 39.7888 16.9458C40 17.1972 39.9922 17.3971 39.8407 18.3487Z" fill="#52B3F2"/>
</svg>
